<svg width="16" height="17" viewBox="0 0 16 17" fill="none" xmlns="http://www.w3.org/2000/svg">
<path d="M8 0.5C3.58172 0.5 0 4.08172 0 8.5C0 12.9183 3.58172 16.5 8 16.5C12.4183 16.5 16 12.9183 16 8.5C15.9949 4.08385 12.4161 0.505143 8 0.5Z" fill="#1971F5" fill-opacity="0.4"/>
<path d="M12.6177 5.96669L8.05438 12.1594C7.94555 12.3037 7.78327 12.3984 7.604 12.4219C7.42473 12.4455 7.2435 12.396 7.10105 12.2847L3.84238 9.67935C3.55483 9.44923 3.50826 9.02958 3.73838 8.74202C3.9685 8.45446 4.38816 8.4079 4.67572 8.63802L7.39305 10.812L11.5444 5.17802C11.6805 4.97375 11.9179 4.86081 12.1623 4.88404C12.4066 4.90728 12.6185 5.06293 12.7137 5.2892C12.8088 5.51547 12.772 5.77574 12.6177 5.96669Z" fill="white"/>
</svg>
