<svg width="24" height="24" viewBox="0 0 24 24" fill="none" xmlns="http://www.w3.org/2000/svg">
<rect width="24" height="24" rx="12" fill="#1971F5" fill-opacity="0.1"/>
<g clip-path="url(#clip0_1_998)">
<path d="M16.9998 14.6717V16.1717C17.0003 16.311 16.9718 16.4488 16.916 16.5764C16.8603 16.704 16.7784 16.8185 16.6758 16.9127C16.5732 17.0068 16.4521 17.0785 16.3202 17.1231C16.1882 17.1677 16.0485 17.1843 15.9098 17.1717C14.3712 17.0045 12.8933 16.4788 11.5948 15.6367C10.3867 14.8691 9.36245 13.8448 8.59478 12.6367C7.74977 11.3323 7.2239 9.84722 7.05978 8.30172C7.04729 8.16345 7.06372 8.0241 7.10803 7.89253C7.15235 7.76096 7.22357 7.64006 7.31717 7.53753C7.41076 7.43499 7.52469 7.35307 7.65168 7.29698C7.77867 7.24089 7.91595 7.21185 8.05478 7.21172H9.55478C9.79744 7.20933 10.0327 7.29526 10.2167 7.45348C10.4006 7.61171 10.5208 7.83144 10.5548 8.07172C10.6181 8.55175 10.7355 9.02308 10.9048 9.47672C10.9721 9.65568 10.9866 9.85018 10.9467 10.0372C10.9069 10.2241 10.8142 10.3958 10.6798 10.5317L10.0448 11.1667C10.7566 12.4185 11.793 13.4549 13.0448 14.1667L13.6798 13.5317C13.8157 13.3973 13.9874 13.3046 14.1743 13.2648C14.3613 13.2249 14.5558 13.2394 14.7348 13.3067C15.1884 13.476 15.6598 13.5934 16.1398 13.6567C16.3827 13.691 16.6045 13.8133 16.7631 14.0005C16.9216 14.1876 17.0059 14.4265 16.9998 14.6717Z" stroke="#1971F5" stroke-linecap="round" stroke-linejoin="round"/>
</g>
<defs>
<clipPath id="clip0_1_998">
<rect width="12" height="12" fill="white" transform="translate(6 6.21167)"/>
</clipPath>
</defs>
</svg>
