<svg width="70" height="70" viewBox="0 0 70 70" fill="none" xmlns="http://www.w3.org/2000/svg">
<g clip-path="url(#clip0_238_25)">
<path d="M27.2054 37.9207L26.2307 41.5592L22.6685 41.6346C21.6039 39.66 21 37.4008 21 35C21 32.6785 21.5646 30.4892 22.5654 28.5615H22.5661L25.7376 29.143L27.1269 32.2954C26.8361 33.1431 26.6776 34.0531 26.6776 35C26.6777 36.0277 26.8639 37.0123 27.2054 37.9207Z" fill="white"/>
<path d="M48.7554 32.3846C48.9162 33.2315 49 34.1061 49 35C49 36.0023 48.8946 36.98 48.6938 37.9231C48.0123 41.1323 46.2315 43.9346 43.7646 45.9177L43.7639 45.9169L39.7693 45.7131L39.2039 42.1838C40.8408 41.2239 42.1201 39.7215 42.7939 37.9231H35.3078V32.3846H42.9032H48.7554Z" fill="white"/>
<path d="M43.7638 45.917L43.7646 45.9177C41.3654 47.8462 38.3177 49 35 49C29.6685 49 25.0331 46.0201 22.6685 41.6347L27.2054 37.9208C28.3877 41.0762 31.4315 43.3224 35 43.3224C36.5338 43.3224 37.9708 42.9077 39.2038 42.1839L43.7638 45.917Z" fill="white"/>
<path d="M43.9362 24.2231L39.4008 27.9361C38.1246 27.1385 36.6161 26.6777 35 26.6777C31.3508 26.6777 28.25 29.0269 27.1269 32.2954L22.5661 28.5615H22.5654C24.8954 24.0692 29.5892 21 35 21C38.3969 21 41.5115 22.21 43.9362 24.2231Z" fill="white"/>
</g>
<defs>
<clipPath id="clip0_238_25">
<rect width="28" height="28" fill="white" transform="translate(21 21)"/>
</clipPath>
</defs>
</svg>
