<svg width="100" height="72" viewBox="0 0 100 72" fill="none" xmlns="http://www.w3.org/2000/svg">
<path d="M98.9936 15.9304C98.9936 15.9304 98.0192 9.01597 95.016 5.96784C91.2141 1.97319 86.9489 1.95715 85 1.71651C71.0064 0.705811 50.016 0.705811 50.016 0.705811H49.9681C49.9681 0.705811 28.9776 0.705811 14.984 1.71651C13.0351 1.95715 8.76997 1.97319 4.96805 5.96784C1.96486 9.01597 0.990415 15.9304 0.990415 15.9304C0.990415 15.9304 -1.9043e-08 24.0481 -1.9043e-08 32.1817V39.8021C-1.9043e-08 47.9197 1.00639 56.0374 1.00639 56.0374C1.00639 56.0374 1.98083 62.9518 4.98403 65.9999C8.78594 69.9946 13.7859 69.8662 16.0064 70.2833C23.9936 71.0534 50 71.294 50 71.294C50 71.294 71.0064 71.262 85 70.2513C86.9489 70.0106 91.2141 69.9946 95.016 65.9999C98.0192 62.9518 98.9936 56.0374 98.9936 56.0374C98.9936 56.0374 100 47.9197 100 39.8021V32.1817C100 24.0481 98.9936 15.9304 98.9936 15.9304Z" fill="black" fill-opacity="0.25"/>
<path d="M39.6804 20.8074V49.0106L66.6932 34.9571L39.6804 20.8074Z" fill="#EAEAEA"/>
</svg>
