<svg width="22" height="22" viewBox="0 0 22 22" fill="none" xmlns="http://www.w3.org/2000/svg">
<path d="M0.150215 10.538C1.48558 8.78853 3.08939 7.26132 4.90216 6.01316L1.80177 2.91276C1.48963 2.6113 1.48097 2.11391 1.78243 1.80178C2.08388 1.48965 2.58127 1.48099 2.8934 1.78244C2.89994 1.78875 2.90639 1.7952 2.91274 1.80178L6.2999 5.18581C7.74166 4.39231 9.35462 3.96089 11 3.92867C16.9714 3.92867 21.6534 10.2678 21.8498 10.538C22.0501 10.8134 22.0501 11.1865 21.8498 11.462C20.5145 13.2115 18.9107 14.7387 17.0979 15.9869L20.1983 19.0873C20.5104 19.3887 20.5191 19.8861 20.2176 20.1982C19.9162 20.5104 19.4188 20.519 19.1066 20.2176C19.1001 20.2113 19.0937 20.2048 19.0873 20.1982L15.7002 16.8142C14.2584 17.6077 12.6454 18.0391 11 18.0714C5.02867 18.0714 0.346657 11.7323 0.150215 11.462C-0.0500469 11.1866 -0.0500469 10.8135 0.150215 10.538ZM15.9555 14.8468C17.5561 13.7808 18.9908 12.4846 20.2132 11C19.0567 9.59911 15.3057 5.50007 11 5.50007C9.77499 5.52484 8.57061 5.81998 7.47298 6.36433L8.83698 7.72833C10.6416 6.5302 13.0759 7.02188 14.274 8.82655C15.1468 10.1412 15.1468 11.8508 14.274 13.1654L15.9555 14.8468ZM8.8786 9.99038C8.72483 10.3048 8.64422 10.65 8.64289 11C8.64289 12.3018 9.6982 13.3572 11 13.3572C11.35 13.3558 11.6952 13.2752 12.0097 13.1214L8.8786 9.99038ZM13.1214 12.0096C13.2752 11.6952 13.3558 11.35 13.3571 11C13.3571 9.69818 12.3018 8.64286 11 8.64286C10.65 8.6442 10.3048 8.72481 9.99036 8.87858L13.1214 12.0096ZM11 16.5C12.225 16.4752 13.4294 16.18 14.527 15.6357L13.163 14.2717C11.3584 15.4698 8.92408 14.9781 7.72596 13.1735C6.85318 11.8589 6.85318 10.1492 7.72596 8.83461L6.04453 7.15318C4.44395 8.21923 3.00924 9.51546 1.7868 11C2.9434 12.401 6.69435 16.5 11 16.5Z" fill="#042D92" fill-opacity="0.4"/>
</svg>
