<svg width="36" height="36" viewBox="0 0 36 36" fill="none" xmlns="http://www.w3.org/2000/svg">
<g clip-path="url(#clip0_248_35)">
<path d="M35.5 7.14781C34.1984 7.71875 32.8116 8.09719 31.3656 8.28094C32.8531 7.39281 33.9884 5.99719 34.5222 4.315C33.1353 5.14187 31.6041 5.72594 29.9722 6.05188C28.6553 4.64969 26.7784 3.78125 24.7309 3.78125C20.7584 3.78125 17.5603 7.00563 17.5603 10.9584C17.5603 11.5272 17.6084 12.0741 17.7266 12.5947C11.7612 12.3038 6.48281 9.44469 2.93687 5.08938C2.31781 6.16344 1.95469 7.39281 1.95469 8.71625C1.95469 11.2013 3.23438 13.4041 5.14187 14.6794C3.98906 14.6575 2.85812 14.3228 1.9 13.7956C1.9 13.8175 1.9 13.8459 1.9 13.8744C1.9 17.3612 4.38719 20.2575 7.64875 20.9247C7.06469 21.0844 6.42812 21.1609 5.7675 21.1609C5.30813 21.1609 4.84437 21.1347 4.40906 21.0384C5.33875 23.88 7.97688 25.9691 11.1138 26.0369C8.6725 27.9466 5.57281 29.0972 2.21719 29.0972C1.62875 29.0972 1.06437 29.0709 0.5 28.9987C3.67844 31.0484 7.44531 32.2188 11.5075 32.2188C24.7113 32.2188 31.93 21.2812 31.93 11.8006C31.93 11.4834 31.9191 11.1772 31.9037 10.8731C33.3278 9.8625 34.5244 8.60031 35.5 7.14781Z" fill="white"/>
</g>
<defs>
<clipPath id="clip0_248_35">
<rect width="35" height="35" fill="white" transform="translate(0.5 0.5)"/>
</clipPath>
</defs>
</svg>
