<svg width="420" height="66" viewBox="0 0 420 66" fill="none" xmlns="http://www.w3.org/2000/svg">
<path d="M99.6656 34.7036L88.1688 18.9293H97.3248L104.092 28.5359L110.86 18.9293H120.016L108.519 34.7036L122.341 53.6329H113.264L104.092 41.0134L94.7771 53.6329H85.7643L99.6656 34.7036Z" fill="white"/>
<path d="M225.271 53.6329V0H233.01V53.6329H225.271Z" fill="white"/>
<path d="M206.704 53.6329V0H214.443V53.6329H206.704Z" fill="white"/>
<path d="M293.105 41.1554V53.6329H285.366V18.9293H293.105V26.8165C294.804 21.0115 297.988 18.109 302.659 18.109C304.821 17.9563 306.982 18.4217 308.885 19.4498L307.611 26.5167C306.003 25.7277 304.231 25.3225 302.436 25.3337C300.969 25.2831 299.519 25.6576 298.263 26.4113C297.007 27.1649 296 28.2651 295.366 29.577C293.666 33.1947 292.89 37.1707 293.105 41.1554V41.1554Z" fill="white"/>
<path d="M370.924 5.7261V18.9293H378.36V25.239H370.924V53.6329H363.201V25.239H356.831V18.9293H363.201V5.7261H370.924Z" fill="white"/>
<path d="M349.092 28.5674C347.688 24.9863 345.189 21.9296 341.945 19.8249C338.701 17.7202 334.873 16.6727 330.998 16.8291C327.124 16.9855 323.395 18.3379 320.334 20.6971C317.273 23.0563 315.034 26.3042 313.928 29.9866C312.823 33.669 312.907 37.6016 314.169 41.2342C315.431 44.8668 317.808 48.0178 320.967 50.2463C324.126 52.4748 327.909 53.6693 331.787 53.6628C335.665 53.6562 339.444 52.449 342.596 50.2099V53.6329H350.318V35.2715C350.325 32.9815 349.909 30.7096 349.092 28.5674V28.5674ZM331.815 45.9192C329.68 45.9223 327.592 45.2981 325.815 44.1255C324.037 42.953 322.651 41.2846 321.831 39.3316C321.011 37.3785 320.794 35.2284 321.208 33.1532C321.621 31.0779 322.646 29.1708 324.154 27.6728C325.662 26.1749 327.584 25.1535 329.678 24.7378C331.771 24.322 333.942 24.5307 335.916 25.3373C337.89 26.1439 339.578 27.5122 340.767 29.2692C341.956 31.0263 342.592 33.0931 342.596 35.2084V35.2084C342.604 36.6169 342.331 38.0131 341.794 39.317C341.256 40.6208 340.463 41.8066 339.462 42.8062C338.46 43.8058 337.269 44.5996 335.957 45.1419C334.644 45.6842 333.237 45.9645 331.815 45.9665V45.9192Z" fill="white"/>
<path d="M143.615 46.4713C141.748 46.483 139.908 46.0373 138.257 45.174C136.607 44.3107 135.197 43.0565 134.154 41.523C133.111 39.9896 132.467 38.2245 132.279 36.3848C132.091 34.5452 132.365 32.6881 133.077 30.9787C133.789 29.2694 134.916 27.761 136.359 26.5877C137.802 25.4144 139.515 24.6126 141.346 24.2537C143.177 23.8948 145.069 23.9899 146.854 24.5306C148.639 25.0713 150.261 26.0408 151.576 27.3528L156.704 22.2577C154.106 19.6801 150.795 17.9237 147.19 17.2109C143.584 16.4981 139.846 16.8608 136.449 18.2532C133.051 19.6456 130.147 22.0051 128.104 25.0331C126.061 28.0611 124.97 31.6214 124.97 35.2636C124.97 38.9058 126.061 42.4662 128.104 45.4942C130.147 48.5221 133.051 50.8816 136.449 52.274C139.846 53.6664 143.584 54.0292 147.19 53.3163C150.795 52.6035 154.106 50.8472 156.704 48.2696L151.576 43.1903C149.463 45.2815 146.602 46.4609 143.615 46.4713V46.4713Z" fill="white"/>
<path d="M199.777 32.2744C199.1 28.2939 197.119 24.645 194.14 21.8911C191.161 19.1373 187.349 17.4317 183.294 17.0378C179.239 16.644 175.165 17.5838 171.703 19.712C168.241 21.8403 165.582 25.0386 164.138 28.8131C162.693 32.5875 162.543 36.728 163.711 40.5952C164.879 44.4623 167.3 47.841 170.6 50.2092C173.9 52.5774 177.895 53.8036 181.968 53.6982C186.041 53.5928 189.966 52.1618 193.137 49.6262L187.898 44.4207C186.429 45.4744 184.722 46.157 182.926 46.4092C181.13 46.6614 179.299 46.4756 177.592 45.8679C175.885 45.2601 174.353 44.2489 173.13 42.9218C171.907 41.5948 171.029 39.9921 170.573 38.2529H199.729C199.737 38.1742 199.737 38.0949 199.729 38.0163C199.882 37.1037 199.962 36.1807 199.968 35.2557C199.985 34.2585 199.921 33.2615 199.777 32.2744V32.2744ZM181.529 24.0559C183.995 24.0597 186.393 24.866 188.352 26.3508C190.311 27.8356 191.724 29.9168 192.373 32.2744H170.621C171.278 29.9091 172.701 27.8232 174.672 26.3382C176.643 24.8531 179.052 24.0512 181.529 24.0559V24.0559Z" fill="white"/>
<path d="M278.424 32.2744C277.743 28.2986 275.76 24.6554 272.781 21.9073C269.801 19.1592 265.992 17.4591 261.94 17.0695C257.889 16.6799 253.82 17.6224 250.363 19.7516C246.906 21.8808 244.253 25.0781 242.813 28.85C241.373 32.6218 241.226 36.7584 242.396 40.6209C243.566 44.4834 245.987 47.8571 249.285 50.2209C252.582 52.5847 256.574 53.8073 260.644 53.6998C264.713 53.5923 268.633 52.1608 271.799 49.6262L266.608 44.4837C265.139 45.5375 263.432 46.2201 261.636 46.4723C259.84 46.7245 258.009 46.5387 256.302 45.9309C254.595 45.3232 253.063 44.3119 251.84 42.9849C250.617 41.6579 249.74 40.0552 249.283 38.316H278.424V38.0794C278.563 37.1655 278.637 36.243 278.646 35.3188C278.664 34.2995 278.59 33.2805 278.424 32.2744ZM260.127 24.0559C262.596 24.0615 264.994 24.8682 266.955 26.3525C268.916 27.8368 270.333 29.9169 270.987 32.2744H249.283C249.935 29.9181 251.348 27.8385 253.307 26.354C255.265 24.8696 257.661 24.0623 260.127 24.0559V24.0559Z" fill="white"/>
<path d="M419.745 32.2744C419.068 28.2939 417.087 24.645 414.108 21.8911C411.129 19.1373 407.317 17.4317 403.262 17.0378C399.207 16.644 395.133 17.5838 391.671 19.712C388.209 21.8403 385.55 25.0386 384.106 28.8131C382.661 32.5875 382.512 36.728 383.68 40.5952C384.848 44.4623 387.268 47.841 390.568 50.2092C393.868 52.5774 397.863 53.8036 401.936 53.6982C406.01 53.5928 409.935 52.1618 413.105 49.6262L407.914 44.4838C406.445 45.5375 404.738 46.2201 402.942 46.4723C401.146 46.7245 399.315 46.5387 397.608 45.931C395.901 45.3232 394.369 44.312 393.146 42.9849C391.923 41.6579 391.045 40.0552 390.589 38.316H419.745C419.737 38.2373 419.737 38.158 419.745 38.0794C419.893 37.1664 419.967 36.2434 419.968 35.3188C419.978 34.2997 419.903 33.2815 419.745 32.2744ZM401.449 24.0559C403.915 24.0624 406.311 24.8696 408.27 26.354C410.228 27.8385 411.642 29.9181 412.293 32.2744H390.589C391.244 29.9169 392.66 27.8368 394.621 26.3525C396.583 24.8682 398.981 24.0615 401.449 24.0559Z" fill="white"/>
<path d="M31.6401 21.4531L13.8694 12.4617L31.6401 3.40726L49.3631 12.4617L31.6401 21.4531Z" fill="white"/>
<path d="M31.6401 66L13.8694 57.0244L31.6401 47.9541L49.3631 57.0244L31.6401 66Z" fill="white"/>
<path d="M18.2166 34.9402L9.14013 52.5444L0 34.9402L9.14013 17.3518L18.2166 34.9402Z" fill="white"/>
<path d="M63.2006 34.3882L54.1401 52.0555L44.9841 34.3882L54.1401 16.8628L63.2006 34.3882Z" fill="white"/>
</svg>
