<svg width="16" height="16" viewBox="0 0 16 16" fill="none" xmlns="http://www.w3.org/2000/svg">
<g clip-path="url(#clip0_1_941)">
<path d="M15.0268 4.28008C14.9476 3.96369 14.7863 3.6738 14.5592 3.43969C14.3321 3.20558 14.0473 3.03554 13.7334 2.94675C12.5868 2.66675 8.0001 2.66675 8.0001 2.66675C8.0001 2.66675 3.41343 2.66675 2.26676 2.97341C1.95293 3.0622 1.66808 3.23224 1.44099 3.46635C1.21391 3.70046 1.05262 3.99035 0.97343 4.30675C0.763573 5.47045 0.66092 6.65095 0.666763 7.83341C0.659282 9.02478 0.761941 10.2143 0.97343 11.3867C1.06074 11.6933 1.22563 11.9722 1.45219 12.1964C1.67875 12.4206 1.95931 12.5826 2.26676 12.6667C3.41343 12.9734 8.0001 12.9734 8.0001 12.9734C8.0001 12.9734 12.5868 12.9734 13.7334 12.6667C14.0473 12.578 14.3321 12.4079 14.5592 12.1738C14.7863 11.9397 14.9476 11.6498 15.0268 11.3334C15.235 10.1785 15.3376 9.00697 15.3334 7.83341C15.3409 6.64205 15.2383 5.45255 15.0268 4.28008V4.28008Z" stroke="#1971F5" stroke-width="1.5" stroke-linecap="round" stroke-linejoin="round"/>
<path d="M6.5 10.0133L10.3333 7.83332L6.5 5.65332V10.0133Z" stroke="#1971F5" stroke-width="1.5" stroke-linecap="round" stroke-linejoin="round"/>
</g>
<defs>
<clipPath id="clip0_1_941">
<rect width="16" height="16" fill="white"/>
</clipPath>
</defs>
</svg>
